<svg width="100%" height="100%" viewBox="0 0 274 103" version="1.1" xmlns="http://www.w3.org/2000/svg" xmlns:xlink="http://www.w3.org/1999/xlink" xml:space="preserve" style="fill-rule:evenodd;clip-rule:evenodd;stroke-linejoin:round;stroke-miterlimit:2;">
    <g id="l5xIcPrLZEfHs46D9PCDTKq" transform="matrix(0.0058916,0,0,0.0058916,5.12189,5.57636)">
        <path id="pwXoQMTHB" d="M29110,15700C28189,15645 27400,15396 26725,14947C26314,14673 25850,14236 25661,13945C25477,13660 25527,13385 25796,13210C25888,13150 25993,13118 26105,13118C26319,13117 26477,13203 26651,13413C27088,13941 27631,14285 28310,14464C29236,14708 30037,14660 30735,14320C31069,14157 31412,13900 31662,13625C32134,13106 32397,12482 32486,11670C32504,11504 32516,10851 32503,10727L32495,10649L32413,10767C31773,11686 30979,12193 29910,12364C29604,12414 29143,12434 28854,12411C27843,12330 26966,11943 26282,11276C25634,10643 25224,9803 25091,8835C24912,7538 25147,6446 25806,5510C26210,4936 26731,4485 27325,4195C27790,3968 28268,3837 28860,3774C29062,3753 29556,3745 29755,3759C30862,3840 31754,4244 32520,5010C33189,5680 33569,6480 33640,7365C33652,7515 33675,8076 33691,8625C33706,9116 33706,10468 33691,10905C33676,11356 33652,11848 33639,11990C33568,12770 33275,13491 32774,14120C32635,14294 32303,14626 32130,14764C31474,15286 30726,15595 29902,15686C29736,15704 29308,15712 29110,15700ZM29845,11296C30227,11241 30500,11160 30805,11010C31110,10861 31328,10703 31580,10450C32318,9712 32618,8764 32474,7625C32376,6839 32091,6212 31620,5740C31236,5356 30707,5073 30090,4920C29397,4749 28739,4798 28120,5067C27716,5242 27286,5548 27003,5860C26538,6373 26285,6993 26221,7773C26207,7937 26207,8331 26220,8480C26290,9243 26599,9919 27115,10435C27604,10924 28237,11224 28950,11305C29119,11324 29688,11318 29845,11296Z" style="fill:white;fill-rule:nonzero;"/>
        <path id="pgOV7UsKx" d="M3290,12623C3083,12588 2908,12429 2832,12205L2805,12125L2802,10030C2800,8878 2802,7903 2805,7864L2812,7792L3238,7900C3893,8066 3898,8068 3940,8154L3962,8200L3961,10133C3959,12285 3964,12137 3889,12290C3834,12401 3719,12520 3618,12568C3515,12618 3388,12639 3290,12623Z" style="fill:white;fill-rule:nonzero;"/>
        <path id="p8PehVMX2" d="M10836,12614C10603,12558 10386,12337 10351,12120C10344,12076 10340,11420 10340,10110C10340,8235 10341,8164 10359,8124C10385,8067 10424,8043 10532,8016C10583,8003 10686,7972 10760,7947C10936,7888 11405,7770 11463,7770C11491,7770 11515,7776 11524,7786C11538,7800 11540,8009 11540,9934C11540,12024 11540,12068 11520,12144C11490,12262 11438,12353 11345,12446C11193,12598 11015,12657 10836,12614Z" style="fill:white;fill-rule:nonzero;"/>
        <path id="pZyGUX172" d="M18380,12424C17929,12384 17549,12296 17160,12143C16638,11938 16177,11639 15773,11247C15253,10740 14895,10152 14685,9455C14549,9003 14492,8538 14503,7955C14509,7645 14519,7521 14561,7270C14674,6585 14965,5927 15398,5380C15575,5157 15842,4879 16040,4714C16576,4265 17200,3970 17898,3835C18444,3730 19095,3723 19645,3816C20571,3972 21358,4400 22024,5110C22665,5792 23038,6624 23135,7585C23161,7848 23174,9169 23162,10600C23152,11996 23157,11901 23082,12043C23029,12144 22948,12221 22836,12274C22685,12346 22556,12365 22410,12336C22169,12287 22038,12148 21970,11870C21933,11719 21926,11617 21927,11262L21929,10920L21737,11116C21523,11336 21390,11454 21188,11606C20615,12035 19956,12298 19200,12401C19077,12417 18981,12422 18735,12425C18565,12426 18405,12426 18380,12424ZM19315,11292C19789,11218 20189,11066 20560,10818C20640,10765 20743,10691 20790,10654C20905,10562 21158,10307 21255,10185C21583,9774 21820,9251 21914,8730C21981,8360 21987,7929 21930,7556C21726,6229 20788,5198 19527,4916C19275,4859 19149,4847 18835,4846C18524,4845 18422,4855 18172,4906C16990,5149 16051,6062 15759,7254C15691,7535 15667,7743 15667,8065C15667,8477 15715,8798 15832,9160C16214,10346 17209,11166 18435,11304C18632,11326 19141,11319 19315,11292Z" style="fill:white;fill-rule:nonzero;"/>
        <path id="pMFdyZw0T" d="M39530,12409C38774,12353 38065,12117 37465,11723C36101,10826 35391,9199 35610,7473C35714,6662 36024,5921 36518,5305C36717,5057 37042,4750 37303,4562C37645,4316 38067,4105 38482,3971C39436,3664 40584,3687 41510,4032C42922,4558 43886,5723 44164,7241C44220,7545 44234,7716 44234,8105C44234,8495 44221,8659 44164,8967C43958,10093 43344,11050 42430,11669C42241,11797 42131,11861 41924,11962C41401,12219 40851,12364 40225,12410C40066,12421 39687,12421 39530,12409ZM40260,11314C40997,11232 41661,10915 42155,10409C42299,10261 42387,10155 42489,10005C42823,9515 43007,8957 43050,8301C43061,8140 43051,7926 43019,7645C42947,7010 42711,6424 42340,5960C42236,5830 42026,5620 41900,5519C41438,5150 40905,4928 40300,4854C40115,4831 39732,4831 39555,4854C39139,4908 38812,5007 38453,5189C38104,5365 37847,5552 37595,5811C37244,6172 37010,6595 36875,7115C36739,7635 36713,8270 36805,8769C36898,9271 37118,9755 37432,10152C37536,10284 37806,10554 37938,10658C38514,11114 39245,11356 39975,11333C40058,11331 40186,11322 40260,11314Z" style="fill:white;fill-rule:nonzero;"/>
        <path id="pSEA1L7zf" d="M6890,8024C6865,8022 6753,8013 6640,8005C6147,7968 5219,7856 4777,7780C3562,7573 2071,7046 945,6427C525,6197 301,6053 194,5945C95,5846 37,5739 15,5615C-3,5513 -3,5477 15,5357C63,5041 248,4894 521,4956C570,4967 652,5004 793,5076C1182,5278 2675,6020 2710,6030C2729,6035 2757,6042 2772,6045L2800,6052L2802,3254C2805,564 2806,453 2823,400C2888,206 3025,77 3220,24C3308,0 3465,0 3545,24C3743,83 3869,225 3932,460L3955,545L3957,3490L3960,6436L4053,6459C4967,6685 5751,6801 6645,6841C6931,6854 7622,6848 7880,6830C8680,6776 9378,6669 10146,6483L10340,6436L10340,3491C10340,1024 10342,537 10354,493C10387,369 10468,240 10570,148C10683,45 10779,10 10945,10C11058,10 11125,25 11217,70C11370,146 11501,326 11529,501C11536,544 11540,1456 11540,3328C11540,4911 11544,6090 11549,6090C11558,6090 13330,5241 13505,5152C13560,5125 13648,5077 13700,5046C13822,4973 13888,4949 13980,4943C14144,4932 14267,5024 14331,5206C14427,5482 14406,5736 14273,5908C14194,6010 14161,6032 13764,6246C13507,6384 12926,6673 12690,6780C12132,7032 11555,7248 11046,7395C10474,7560 9123,7862 8765,7904C8694,7913 8507,7929 8350,7940C8193,7952 7921,7974 7745,7991C7443,8020 7025,8036 6890,8024Z" style="fill:white;fill-rule:nonzero;"/>
    </g>
</svg>
